<svg width="30" height="30" viewBox="0 0 1024 1024" xmlns="http://www.w3.org/2000/svg">
    <path d="M188.05 0h611.328c74.972 0 135.827 60.782 135.827 135.826v679.205a135.826 135.826 0 0 1-135.827 135.826h-611.4A135.826 135.826 0 0 1 52.15 815.031V135.826C52.224 60.782 113.079 0 188.05 0zm4.243 63.488c-42.496 0-77.02 34.523-77.02 77.02V810.35c0 42.496 34.524 77.02 77.02 77.02h602.843c42.496 0 77.02-34.524 77.02-77.02V140.434c0-42.496-34.524-77.02-77.02-77.02H192.293zm212.406 173.641h281.893a28.891 28.891 0 1 1 0 57.783H404.699a28.891 28.891 0 1 1 0-57.783zm0 205.532h281.893a28.891 28.891 0 0 1 0 57.782H404.699a28.891 28.891 0 1 1 0-57.782zm0 203.117h281.893a28.891 28.891 0 1 1 0 57.783H404.699a28.891 28.891 0 1 1 0-57.783zm-116.59-350.94a28.891 28.891 0 1 1 0-57.709 28.891 28.891 0 0 1 0 57.783zm0 205.532a28.891 28.891 0 1 1 0-57.71 28.891 28.891 0 0 1 0 57.783zm0 203.191a28.891 28.891 0 1 1 0-57.783 28.891 28.891 0 0 1 0 57.783z" />
</svg>
